#Comment line ignore any data following # character 
#Hierarchical Translation and Rotation (.htr) file 
[Header]	
#Header keywords are followed by a single value 
FileType HTR		#Single word string
DataType HTRS		#Translation followed by rotation and scale data
FileVersion 1		#integer
NumSegments 84		#integer
NumFrames 2		#integer
DataFrameRate 30		#integer, data frame rate in this file
EulerRotationOrder ZYX
CalibrationUnits mm
RotationUnits Degrees
GlobalAxisofGravity Y
BoneLengthAxis Y
ScaleFactor 1.00
[SegmentNames&Hierarchy]
#CHILD	PARENT
MASTER GLOBAL
root MASTER
chest root
L_mid_tent01 root
R_mid_tent01 root
spine01 root
Bip01_Neck chest
L_humerus chest
R_humerus chest
weapon_bone chest
Bip01_Head Bip01_Neck
eye_left_bone Bip01_Head
eye_right_bone Bip01_Head
L_forearm L_humerus
L_front_hand L_forearm
L_weapon_bone L_forearm
L_front_hand01_01 L_front_hand
L_front_hand02_01 L_front_hand
L_front_hand03_01 L_front_hand
L_front_hand01_02 L_front_hand01_01
L_front_hand02_02 L_front_hand02_01
L_front_hand03_02 L_front_hand03_01
R_forearm R_humerus
R_front_hand R_forearm
R_weapon_bone R_forearm
R_front_hand01_01 R_front_hand
R_front_hand02_01 R_front_hand
R_front_hand03_01 R_front_hand
R_front_hand01_02 R_front_hand01_01
R_front_hand02_02 R_front_hand02_01
R_front_hand03_02 R_front_hand03_01
null_rope01_connect L_mid_tent01
Rope1_Seg01 null_rope01_connect
Rope1_Seg02 Rope1_Seg01
Rope1_Seg03 Rope1_Seg02
Rope1_Seg04 Rope1_Seg03
Rope1_Seg05 Rope1_Seg04
Rope1_Seg06 Rope1_Seg05
Rope1_Seg07 Rope1_Seg06
Rope1_Seg09 Rope1_Seg07
L_mid_hand01 Rope1_Seg09
L_mid_hand02 Rope1_Seg09
L_mid_hand03 Rope1_Seg09
null_rope02_connect R_mid_tent01
Rope2_Seg01 null_rope02_connect
Rope2_Seg02 Rope2_Seg01
Rope2_Seg03 Rope2_Seg02
Rope2_Seg04 Rope2_Seg03
Rope2_Seg05 Rope2_Seg04
Rope2_Seg06 Rope2_Seg05
Rope2_Seg07 Rope2_Seg06
Rope2_Seg09 Rope2_Seg07
R_mid_hand01 Rope2_Seg09
R_mid_hand02 Rope2_Seg09
R_mid_hand03 Rope2_Seg09
spine02 spine01
spine03 spine02
pelvis spine03
null_rope03_connect pelvis
null_rope04_connect pelvis
Rope3_Seg01 null_rope03_connect
Rope3_Seg02 Rope3_Seg01
Rope3_Seg03 Rope3_Seg02
Rope3_Seg04 Rope3_Seg03
Rope3_Seg05 Rope3_Seg04
Rope3_Seg06 Rope3_Seg05
Rope3_Seg07 Rope3_Seg06
Rope3_Seg08 Rope3_Seg07
Rope3_Seg09 Rope3_Seg08
R_rear_hand01 Rope3_Seg09
R_rear_hand02 Rope3_Seg09
R_rear_hand03 Rope3_Seg09
Rope4_Seg01 null_rope04_connect
Rope4_Seg02 Rope4_Seg01
Rope4_Seg03 Rope4_Seg02
Rope4_Seg04 Rope4_Seg03
Rope4_Seg05 Rope4_Seg04
Rope4_Seg06 Rope4_Seg05
Rope4_Seg07 Rope4_Seg06
Rope4_Seg08 Rope4_Seg07
Rope4_Seg09 Rope4_Seg08
L_rear_hand01 Rope4_Seg09
L_rear_hand02 Rope4_Seg09
L_rear_hand03 Rope4_Seg09
[BasePosition]
#SegmentName Tx, Ty, Tz, Rx, Ry, Rz, BoneLength
MASTER 0.000000 0.000000 0.000000 -90.000000 0.000000 0.000000 10.000000 
root 0.000000 0.000000 0.000000 0.000000 0.000000 0.000000 10.000000 
chest 0.000000 0.000000 0.000000 0.000000 0.000000 0.000000 10.000000 
L_mid_tent01 0.000000 0.000000 0.000000 0.000000 0.000000 0.000000 10.000000 
R_mid_tent01 0.000000 0.000000 0.000000 0.000000 0.000000 0.000000 10.000000 
spine01 0.000000 0.000000 0.000000 0.000000 0.000000 0.000000 10.000000 
Bip01_Neck 0.000000 0.000000 0.000000 0.000000 0.000000 0.000000 10.000000 
L_humerus 0.000000 0.000000 0.000000 0.000000 0.000000 0.000000 10.000000 
R_humerus 0.000000 0.000000 0.000000 0.000000 0.000000 0.000000 10.000000 
weapon_bone 0.000000 0.000000 0.000000 0.000000 0.000000 0.000000 10.000000 
Bip01_Head 0.000000 0.000000 0.000000 0.000000 0.000000 0.000000 10.000000 
eye_left_bone 0.000000 0.000000 0.000000 0.000000 0.000000 0.000000 10.000000 
eye_right_bone 0.000000 0.000000 0.000000 0.000000 0.000000 0.000000 10.000000 
L_forearm 0.000000 0.000000 0.000000 0.000000 0.000000 0.000000 10.000000 
L_front_hand 0.000000 0.000000 0.000000 0.000000 0.000000 0.000000 10.000000 
L_weapon_bone 0.000000 0.000000 0.000000 0.000000 0.000000 0.000000 10.000000 
L_front_hand01_01 0.000000 0.000000 0.000000 0.000000 0.000000 0.000000 10.000000 
L_front_hand02_01 0.000000 0.000000 0.000000 0.000000 0.000000 0.000000 10.000000 
L_front_hand03_01 0.000000 0.000000 0.000000 0.000000 0.000000 0.000000 10.000000 
L_front_hand01_02 0.000000 0.000000 0.000000 0.000000 0.000000 0.000000 10.000000 
L_front_hand02_02 0.000000 0.000000 0.000000 0.000000 0.000000 0.000000 10.000000 
L_front_hand03_02 0.000000 0.000000 0.000000 0.000000 0.000000 0.000000 10.000000 
R_forearm 0.000000 0.000000 0.000000 0.000000 0.000000 0.000000 10.000000 
R_front_hand 0.000000 0.000000 0.000000 0.000000 0.000000 0.000000 10.000000 
R_weapon_bone 0.000000 0.000000 0.000000 0.000000 0.000000 0.000000 10.000000 
R_front_hand01_01 0.000000 0.000000 0.000000 0.000000 0.000000 0.000000 10.000000 
R_front_hand02_01 0.000000 0.000000 0.000000 0.000000 0.000000 0.000000 10.000000 
R_front_hand03_01 0.000000 0.000000 0.000000 0.000000 0.000000 0.000000 10.000000 
R_front_hand01_02 0.000000 0.000000 0.000000 0.000000 0.000000 0.000000 10.000000 
R_front_hand02_02 0.000000 0.000000 0.000000 0.000000 0.000000 0.000000 10.000000 
R_front_hand03_02 0.000000 0.000000 0.000000 0.000000 0.000000 0.000000 10.000000 
null_rope01_connect 0.000000 0.000000 0.000000 0.000000 0.000000 0.000000 10.000000 
Rope1_Seg01 0.000000 0.000000 0.000000 0.000000 0.000000 0.000000 10.000000 
Rope1_Seg02 0.000000 0.000000 0.000000 0.000000 0.000000 0.000000 10.000000 
Rope1_Seg03 0.000000 0.000000 0.000000 0.000000 0.000000 0.000000 10.000000 
Rope1_Seg04 0.000000 0.000000 0.000000 0.000000 0.000000 0.000000 10.000000 
Rope1_Seg05 0.000000 0.000000 0.000000 0.000000 0.000000 0.000000 10.000000 
Rope1_Seg06 0.000000 0.000000 0.000000 0.000000 0.000000 0.000000 10.000000 
Rope1_Seg07 0.000000 0.000000 0.000000 0.000000 0.000000 0.000000 10.000000 
Rope1_Seg09 0.000000 0.000000 0.000000 0.000000 0.000000 0.000000 10.000000 
L_mid_hand01 0.000000 0.000000 0.000000 0.000000 0.000000 0.000000 10.000000 
L_mid_hand02 0.000000 0.000000 0.000000 0.000000 0.000000 0.000000 10.000000 
L_mid_hand03 0.000000 0.000000 0.000000 0.000000 0.000000 0.000000 10.000000 
null_rope02_connect 0.000000 0.000000 0.000000 0.000000 0.000000 0.000000 10.000000 
Rope2_Seg01 0.000000 0.000000 0.000000 0.000000 0.000000 0.000000 10.000000 
Rope2_Seg02 0.000000 0.000000 0.000000 0.000000 0.000000 0.000000 10.000000 
Rope2_Seg03 0.000000 0.000000 0.000000 0.000000 0.000000 0.000000 10.000000 
Rope2_Seg04 0.000000 0.000000 0.000000 0.000000 0.000000 0.000000 10.000000 
Rope2_Seg05 0.000000 0.000000 0.000000 0.000000 0.000000 0.000000 10.000000 
Rope2_Seg06 0.000000 0.000000 0.000000 0.000000 0.000000 0.000000 10.000000 
Rope2_Seg07 0.000000 0.000000 0.000000 0.000000 0.000000 0.000000 10.000000 
Rope2_Seg09 0.000000 0.000000 0.000000 0.000000 0.000000 0.000000 10.000000 
R_mid_hand01 0.000000 0.000000 0.000000 0.000000 0.000000 0.000000 10.000000 
R_mid_hand02 0.000000 0.000000 0.000000 0.000000 0.000000 0.000000 10.000000 
R_mid_hand03 0.000000 0.000000 0.000000 0.000000 0.000000 0.000000 10.000000 
spine02 0.000000 0.000000 0.000000 0.000000 0.000000 0.000000 10.000000 
spine03 0.000000 0.000000 0.000000 0.000000 0.000000 0.000000 10.000000 
pelvis 0.000000 0.000000 0.000000 0.000000 0.000000 0.000000 10.000000 
null_rope03_connect 0.000000 0.000000 0.000000 0.000000 0.000000 0.000000 10.000000 
null_rope04_connect 0.000000 0.000000 0.000000 0.000000 0.000000 0.000000 10.000000 
Rope3_Seg01 0.000000 0.000000 0.000000 0.000000 0.000000 0.000000 10.000000 
Rope3_Seg02 0.000000 0.000000 0.000000 0.000000 0.000000 0.000000 10.000000 
Rope3_Seg03 0.000000 0.000000 0.000000 0.000000 0.000000 0.000000 10.000000 
Rope3_Seg04 0.000000 0.000000 0.000000 0.000000 0.000000 0.000000 10.000000 
Rope3_Seg05 0.000000 0.000000 0.000000 0.000000 0.000000 0.000000 10.000000 
Rope3_Seg06 0.000000 0.000000 0.000000 0.000000 0.000000 0.000000 10.000000 
Rope3_Seg07 0.000000 0.000000 0.000000 0.000000 0.000000 0.000000 10.000000 
Rope3_Seg08 0.000000 0.000000 0.000000 0.000000 0.000000 0.000000 10.000000 
Rope3_Seg09 0.000000 0.000000 0.000000 0.000000 0.000000 0.000000 10.000000 
R_rear_hand01 0.000000 0.000000 0.000000 0.000000 0.000000 0.000000 10.000000 
R_rear_hand02 0.000000 0.000000 0.000000 0.000000 0.000000 0.000000 10.000000 
R_rear_hand03 0.000000 0.000000 0.000000 0.000000 0.000000 0.000000 10.000000 
Rope4_Seg01 0.000000 0.000000 0.000000 0.000000 0.000000 0.000000 10.000000 
Rope4_Seg02 0.000000 0.000000 0.000000 0.000000 0.000000 0.000000 10.000000 
Rope4_Seg03 0.000000 0.000000 0.000000 0.000000 0.000000 0.000000 10.000000 
Rope4_Seg04 0.000000 0.000000 0.000000 0.000000 0.000000 0.000000 10.000000 
Rope4_Seg05 0.000000 0.000000 0.000000 0.000000 0.000000 0.000000 10.000000 
Rope4_Seg06 0.000000 0.000000 0.000000 0.000000 0.000000 0.000000 10.000000 
Rope4_Seg07 0.000000 0.000000 0.000000 0.000000 0.000000 0.000000 10.000000 
Rope4_Seg08 0.000000 0.000000 0.000000 0.000000 0.000000 0.000000 10.000000 
Rope4_Seg09 0.000000 0.000000 0.000000 0.000000 0.000000 0.000000 10.000000 
L_rear_hand01 0.000000 0.000000 0.000000 0.000000 0.000000 0.000000 10.000000 
L_rear_hand02 0.000000 0.000000 0.000000 0.000000 0.000000 0.000000 10.000000 
L_rear_hand03 0.000000 0.000000 0.000000 0.000000 0.000000 0.000000 10.000000 
#Beginning of Data. Separated by tabs
#Fr	Tx	Ty	Tz	Rx	Ry	Rz	SF
[MASTER]
17 0.000000 0.000000 0.000000 0.001660 0.001660 0.001660 0.000000
18 0.000000 0.000000 0.000000 0.001660 0.001660 0.001660 0.000000
[root]
17 -54.588535 -62.685436 1453.156372 -91.841606 -23.102982 -90.312798 1455.531738
18 -47.092323 -62.692829 1464.245605 -91.827972 -23.605227 -90.295174 1466.343506
[chest]
17 -84.512650 -34.090519 0.000000 -5.075580 -0.428405 -178.457855 91.129311
18 -84.512650 -34.090519 0.000000 -5.166649 -0.347474 -178.995834 91.129311
[L_mid_tent01]
17 27.314384 22.168961 -250.013321 -4.867049 36.121529 66.614067 252.476151
18 27.309448 22.171782 -249.981552 -4.105565 36.542709 68.325111 252.444382
[R_mid_tent01]
17 23.228794 24.509907 226.238495 173.535461 -40.726124 72.906563 228.744751
18 23.228794 24.509907 226.238495 174.281845 -40.103878 71.906204 228.744751
[spine01]
17 -0.361383 -0.195265 0.000000 0.401346 0.426911 13.626360 0.410763
18 -0.361383 -0.195265 0.000000 0.467798 0.430320 13.930493 0.410763
[Bip01_Neck]
17 165.484543 71.581718 0.000119 175.896118 1.177290 24.871183 180.302734
18 165.484543 71.581718 0.000119 175.896118 1.177290 24.871183 180.302734
[L_humerus]
17 -13.983130 -135.272980 -120.471481 -178.281891 1.886848 -87.432518 181.680161
18 -13.983130 -135.272980 -120.471481 -178.456009 0.735066 -87.087387 181.680161
[R_humerus]
17 -13.983309 -135.273102 125.287651 -177.927048 -1.023230 -88.291855 184.909012
18 -13.983309 -135.273102 125.287651 -177.927048 -1.023230 -88.291855 184.909012
[weapon_bone]
17 235.964890 -300.705902 0.000000 0.000000 -89.951546 -128.212341 382.234833
18 235.964890 -300.705902 0.000000 0.000000 -89.951546 -128.212341 382.234833
[Bip01_Head]
17 256.907654 123.833755 2.252555 2.425190 4.377156 -52.824955 285.204163
18 258.046448 120.301186 1.137554 2.386980 4.693874 -54.925812 284.713257
[eye_left_bone]
17 -24.626970 125.451866 -64.772606 0.000000 -90.000000 -99.840431 143.318359
18 -24.626970 125.451866 -64.772606 0.000000 -90.000000 -99.840431 143.318359
[eye_right_bone]
17 -24.626970 125.451866 64.327362 0.000000 -89.960434 80.159386 143.117676
18 -24.626970 125.451866 64.327362 0.000000 -89.960434 80.159386 143.117676
[L_forearm]
17 322.776093 0.000000 -0.000119 0.000634 0.002260 -58.660515 322.776093
18 322.776093 0.000000 -0.000119 0.000728 0.002231 -53.848518 322.776093
[L_front_hand]
17 241.149185 -0.042021 -3.300071 -177.735535 -0.136965 -77.895470 241.171753
18 241.149185 -0.042021 -3.300071 -178.326462 -1.535220 -38.906086 241.171753
[L_weapon_bone]
17 156.183838 0.000000 0.000000 0.001871 0.001418 15.673925 156.183838
18 156.183838 0.000000 0.000000 0.001923 0.001349 19.912895 156.183838
[L_front_hand01_01]
17 86.095154 20.947098 -0.655860 0.393757 -0.452308 -3.234858 88.609184
18 86.095154 20.947098 -0.655860 0.396106 -0.451645 -3.412979 88.609184
[L_front_hand02_01]
17 86.935165 -11.437475 24.513514 116.928825 2.393536 0.868088 91.046425
18 86.935165 -11.437475 24.513514 116.933182 2.545307 0.945318 91.046425
[L_front_hand03_01]
17 86.637497 -14.123976 -20.424902 -118.373924 -3.446934 -0.810081 90.126129
18 86.637497 -14.123976 -20.424902 -118.378685 -3.588752 -0.733214 90.126129
[L_front_hand01_02]
17 71.020905 -0.000179 0.000030 0.001534 0.001777 -8.378850 71.020905
18 71.020905 -0.000179 0.000030 0.001534 0.001777 -8.378848 71.020905
[L_front_hand02_02]
17 71.020927 -0.000119 0.000060 0.001534 0.001777 -8.378850 71.020927
18 71.020927 -0.000119 0.000060 0.001534 0.001777 -8.378848 71.020927
[L_front_hand03_02]
17 71.020905 -0.000060 0.000060 0.001534 0.001777 -8.378850 71.020905
18 71.020905 -0.000060 0.000060 0.001534 0.001777 -8.378848 71.020905
[R_forearm]
17 322.776428 -0.000060 0.000030 0.186035 -0.105951 -61.615417 322.776428
18 322.776428 -0.000060 0.000030 0.178109 -0.114422 -57.834209 322.776428
[R_front_hand]
17 238.847015 -0.006795 2.210259 -1.699507 -0.297494 -88.756004 238.857239
18 238.847015 -0.006795 2.210259 -1.414607 0.991402 -43.773033 238.857239
[R_weapon_bone]
17 155.664093 0.002503 -0.000030 0.003223 0.001778 -111.371483 155.664078
18 155.664093 0.002503 -0.000030 0.003137 0.001925 -116.678581 155.664078
[R_front_hand01_01]
17 87.624611 14.231146 22.918642 -116.935242 2.534818 -0.833735 91.683487
18 87.624611 14.231146 22.918642 -116.937515 2.653350 -0.894569 91.683487
[R_front_hand02_01]
17 89.356956 14.367283 -19.491137 118.385773 -3.309909 1.123492 92.579636
18 89.356956 14.367283 -19.491137 118.390594 -3.426302 1.060267 92.579636
[R_front_hand03_01]
17 87.286232 -22.307278 -0.143439 -0.385911 -0.240047 3.153298 90.091743
18 87.286232 -22.307278 -0.143439 -0.386180 -0.239614 3.281940 90.091743
[R_front_hand01_02]
17 71.020905 0.000060 0.000119 0.001777 0.001534 8.377220 71.020905
18 71.020905 0.000060 0.000119 0.001777 0.001534 8.377220 71.020905
[R_front_hand02_02]
17 71.020844 -0.000030 -0.000119 0.001777 0.001534 8.377220 71.020836
18 71.020844 -0.000030 -0.000119 0.001777 0.001534 8.377220 71.020836
[R_front_hand03_02]
17 71.020905 0.000000 0.000030 0.001777 0.001534 8.377220 71.020905
18 71.020905 0.000000 0.000030 0.001777 0.001534 8.377220 71.020905
[null_rope01_connect]
17 328.732483 0.000000 -0.000238 -142.032806 -51.626129 -172.989777 328.732483
18 328.732483 0.000000 -0.000238 -141.894043 -51.309635 -174.103958 328.732483
[Rope1_Seg01]
17 0.000085 0.000000 0.000000 91.592575 57.256226 108.843468 0.000085
18 0.000081 0.000000 0.000000 88.290138 68.631004 104.264008 0.000081
[Rope1_Seg02]
17 139.999863 -0.000179 0.000000 -1.352200 -12.157205 9.876622 139.999863
18 139.999863 -0.000179 0.000000 -0.784608 -7.397449 28.489326 139.999863
[Rope1_Seg03]
17 139.999924 0.000060 -0.000060 -0.780774 -8.016411 8.243926 139.999924
18 139.999924 0.000060 -0.000060 1.097312 -3.743400 9.140380 139.999924
[Rope1_Seg04]
17 139.999924 -0.000060 -0.000119 -2.775675 -16.012968 18.507381 139.999924
18 139.999924 -0.000060 -0.000119 -4.916076 -15.786277 12.769981 139.999924
[Rope1_Seg05]
17 139.999832 0.000119 -0.000060 -0.862283 -8.029023 8.891177 139.999832
18 139.999832 0.000119 -0.000060 -6.108066 -11.224337 7.658590 139.999832
[Rope1_Seg06]
17 139.999954 0.000119 -0.000060 -0.428392 -4.085746 4.417562 139.999954
18 139.999954 0.000119 -0.000060 -4.227536 -5.443931 3.294803 139.999954
[Rope1_Seg07]
17 139.999985 0.000060 0.000000 -0.323193 -2.588005 2.769629 139.999985
18 139.999985 0.000060 0.000000 -3.916864 -3.598533 1.837857 139.999985
[Rope1_Seg09]
17 121.602913 0.000119 -0.000089 64.493835 -1.357244 0.847484 121.602913
18 121.602913 0.000119 -0.000089 13.063659 -1.357644 0.846539 121.602913
[L_mid_hand01]
17 103.859421 1.038730 8.195221 104.352036 0.341409 -0.444601 104.187431
18 103.859421 1.038730 8.195221 105.103745 -17.963100 -5.291020 104.187431
[L_mid_hand02]
17 105.572853 -4.139662 -10.864139 -135.608444 3.905736 -3.381107 106.211075
18 105.572853 -4.139662 -10.864139 -138.167358 16.893818 -17.391130 106.211075
[L_mid_hand03]
17 104.641464 17.579376 -3.913581 -18.761518 -0.324338 2.942981 106.179977
18 104.641464 17.579376 -3.913581 -17.918550 5.675312 20.907986 106.179977
[null_rope02_connect]
17 328.732849 0.000179 -0.000119 -129.185333 50.725590 8.454352 328.732849
18 328.732849 0.000179 -0.000119 -128.672165 51.411049 7.775413 328.732849
[Rope2_Seg01]
17 0.000095 0.000153 0.000034 -64.235397 30.478306 15.085718 0.000183
18 0.000095 0.000153 0.000036 -65.848274 23.780489 -3.487965 0.000184
[Rope2_Seg02]
17 139.999741 -0.000060 -0.000119 -2.705725 -19.666586 11.220968 139.999756
18 139.999741 -0.000060 -0.000119 -7.310054 -15.732448 14.687612 139.999756
[Rope2_Seg03]
17 140.000107 0.000030 0.000000 -1.951142 -16.188377 11.644157 140.000107
18 140.000107 0.000030 0.000000 -10.762266 -28.032927 30.263517 140.000107
[Rope2_Seg04]
17 139.999802 0.000000 -0.000060 -3.519558 -26.563026 6.951570 139.999802
18 139.999802 0.000000 -0.000060 -2.782489 -25.711672 13.195372 139.999802
[Rope2_Seg05]
17 139.999985 -0.000060 0.000119 -2.006353 -8.376543 1.076051 139.999985
18 139.999985 -0.000060 0.000119 -5.773185 -8.660824 -4.463796 139.999985
[Rope2_Seg06]
17 139.999893 -0.000030 -0.000119 -0.854910 -3.298649 0.535900 139.999893
18 139.999893 -0.000030 -0.000119 -2.115617 -3.332326 -1.040343 139.999893
[Rope2_Seg07]
17 139.999893 0.000060 -0.000060 -0.591924 -1.965363 0.288813 139.999893
18 139.999893 0.000060 -0.000060 -1.154133 -1.926387 -0.394450 139.999893
[Rope2_Seg09]
17 121.338966 0.000089 -0.000060 -36.830509 -1.249490 1.001625 121.338966
18 121.338966 0.000089 -0.000060 10.610108 -1.584949 -0.244867 121.338966
[R_mid_hand01]
17 104.680779 11.144459 -10.335981 -16.212063 45.237247 70.462852 105.778534
18 104.680779 11.144459 -10.335981 -16.241196 45.226711 70.417000 105.778534
[R_mid_hand02]
17 104.070427 2.443552 8.231699 49.067368 -67.749771 39.286453 104.424065
18 104.070427 2.443552 8.231699 49.132145 -67.725708 39.216339 104.424065
[R_mid_hand03]
17 106.028137 -11.221827 -5.996406 -177.101105 15.551026 -76.585571 106.788818
18 106.028137 -11.221827 -5.996406 -177.088654 15.549228 -76.545715 106.788818
[spine02]
17 129.756927 0.001550 0.000119 -0.178920 -4.156644 -5.350242 129.756927
18 129.756927 0.001550 0.000119 -0.189337 -4.134357 -5.204545 129.756927
[spine03]
17 78.791084 0.056432 -3.168164 1.392104 1.841586 5.950890 78.854774
18 78.766869 0.060635 -3.404564 1.262175 2.221829 4.246802 78.840439
[pelvis]
17 169.435242 0.051022 0.000000 0.009357 0.989914 -2.708200 169.435257
18 169.435242 0.051022 0.000000 0.007416 0.808906 -2.588038 169.435257
[null_rope03_connect]
17 -1.257226 -2.466202 137.391083 179.152786 -89.404556 -77.588692 137.418976
18 -1.257226 -2.466202 137.391083 0.000000 -89.429390 103.204147 137.418976
[null_rope04_connect]
17 -1.259640 -2.480268 -137.844437 179.152786 -89.404556 -77.588692 137.872513
18 -1.259640 -2.480268 -137.844437 0.000000 -89.429390 103.204147 137.872513
[Rope3_Seg01]
17 0.000010 0.000021 -0.000085 -141.969528 -17.782944 -32.530975 0.000088
18 0.000010 0.000020 -0.000081 -150.758469 -24.354757 -28.983604 0.000084
[Rope3_Seg02]
17 139.999924 -0.000119 0.000060 1.828011 -4.566686 -4.800059 139.999924
18 139.999924 -0.000119 0.000060 -2.049907 -1.429826 -5.010290 139.999924
[Rope3_Seg03]
17 139.999924 -0.000119 0.000119 6.511069 -9.081763 -9.095922 139.999924
18 139.999924 -0.000119 0.000119 -5.727869 -2.164322 -8.828922 139.999924
[Rope3_Seg04]
17 139.999924 0.000119 0.000000 113.690659 -20.928680 -18.909372 139.999924
18 139.999924 0.000119 0.000000 -40.841656 -2.540826 -18.903181 139.999924
[Rope3_Seg05]
17 139.999924 -0.000238 0.000060 40.186302 -11.367143 32.636086 139.999924
18 139.999924 -0.000238 0.000060 -93.058746 18.912077 -27.907890 139.999924
[Rope3_Seg06]
17 139.999893 -0.000119 -0.000060 5.180607 14.459995 27.102680 139.999893
18 139.999893 -0.000119 -0.000060 -6.740328 24.562143 15.682142 139.999893
[Rope3_Seg07]
17 139.999771 0.000060 -0.000119 2.268752 11.359230 17.502487 139.999771
18 139.999771 0.000060 -0.000119 0.692367 22.306072 16.873169 139.999771
[Rope3_Seg08]
17 139.999985 -0.000060 0.000000 0.729622 3.934752 6.324659 139.999985
18 139.999985 -0.000060 0.000000 1.829359 12.784157 9.913903 139.999985
[Rope3_Seg09]
17 90.185997 -0.000179 -0.000060 71.361435 -1.361867 -0.848018 90.185997
18 90.185997 -0.000179 -0.000060 74.187584 -1.360462 -0.846799 90.185997
[R_rear_hand01]
17 103.366196 -6.073594 -10.757982 -156.049316 6.070419 -2.795869 104.101845
18 103.366196 -6.073594 -10.757982 -156.049316 6.070419 -2.795869 104.101845
[R_rear_hand02]
17 100.509819 12.039542 -7.992327 -38.708424 1.958050 5.461185 101.543350
18 100.509819 12.039542 -7.992327 -38.708424 1.958050 5.461185 101.543350
[R_rear_hand03]
17 101.539970 5.215704 5.435467 84.307625 -2.361032 4.099037 101.819031
18 101.539970 5.215704 5.435467 84.307625 -2.361032 4.099037 101.819031
[Rope4_Seg01]
17 -0.000013 -0.000008 -0.000110 51.276127 -16.931293 -118.551529 0.000111
18 -0.000014 -0.000014 -0.000112 53.875771 -37.748463 -109.156639 0.000114
[Rope4_Seg02]
17 139.999985 0.000060 0.000119 -8.292307 -28.403128 -34.046158 139.999985
18 139.999985 0.000060 0.000119 6.260223 -28.442305 -8.907543 139.999985
[Rope4_Seg03]
17 139.999924 0.000000 -0.000238 -94.303665 -20.781755 -36.733475 139.999924
18 139.999924 0.000000 -0.000238 125.869827 -52.037933 -17.254881 139.999924
[Rope4_Seg04]
17 139.999985 0.000000 0.000119 -18.813786 40.355129 -2.300119 139.999985
18 139.999985 0.000000 0.000119 38.066708 11.309809 41.024342 139.999985
[Rope4_Seg05]
17 139.999802 -0.000060 -0.000119 0.568700 22.684486 8.107349 139.999802
18 139.999802 -0.000060 -0.000119 6.354153 23.079199 19.545723 139.999802
[Rope4_Seg06]
17 139.999924 0.000000 0.000060 0.133904 6.205228 1.891136 139.999924
18 139.999924 0.000000 0.000060 0.468192 6.321626 4.675022 139.999924
[Rope4_Seg07]
17 139.999802 0.000000 0.000000 0.182890 3.522001 1.066184 139.999802
18 139.999802 0.000000 0.000000 0.191467 3.332209 2.441742 139.999802
[Rope4_Seg08]
17 139.999924 0.000000 0.000119 -1.412641 1.987552 0.595514 139.999924
18 139.999924 0.000000 0.000119 -1.461221 1.824129 1.328890 139.999924
[Rope4_Seg09]
17 90.185791 0.000060 0.000060 -114.459976 2.228454 0.848327 90.185791
18 90.185791 0.000060 0.000060 -115.714455 2.228637 0.847449 90.185791
[L_rear_hand01]
17 101.696655 -8.392275 -7.654577 -38.749229 0.059146 177.057022 102.329041
18 101.696655 -8.392275 -7.654577 -38.745747 -0.164385 176.779007 102.329041
[L_rear_hand02]
17 102.726799 -1.568258 5.773216 84.310738 -0.846406 176.222321 102.900848
18 102.726799 -1.568258 5.773216 84.311539 -0.487285 176.187027 102.900848
[L_rear_hand03]
17 104.552910 9.721220 -10.420293 -155.768204 -4.756144 179.842438 105.519653
18 104.552910 9.721220 -10.420293 -155.795746 -4.901433 -179.833191 105.519653
